<svg width="12" height="18" viewBox="0 0 12 18" fill="none" xmlns="http://www.w3.org/2000/svg">
<path d="M5.38338 17.6368C0.842821 10.2316 8.35867e-06 9.47155 8.35867e-06 6.75C8.35867e-06 3.02207 2.68629 1.07288e-06 6.00001 1.07288e-06C9.31373 1.07288e-06 12 3.02207 12 6.75C12 9.47155 11.1572 10.2316 6.61663 17.6368C6.31866 18.1211 5.68132 18.121 5.38338 17.6368ZM6.00001 9.5625C7.38073 9.5625 8.50001 8.30331 8.50001 6.75C8.50001 5.19669 7.38073 3.9375 6.00001 3.9375C4.61929 3.9375 3.50001 5.19669 3.50001 6.75C3.50001 8.30331 4.61929 9.5625 6.00001 9.5625Z" fill="black"/>
</svg>
