<svg width="40" height="41" viewBox="0 0 40 41" fill="none" xmlns="http://www.w3.org/2000/svg">
  <path d="M22.3499 20.7317L29.5166 13.5817C29.8304 13.2678 30.0067 12.8422 30.0067 12.3983C30.0067 11.9545 29.8304 11.5288 29.5166 11.215C29.2027 10.9012 28.7771 10.7248 28.3332 10.7248C27.8894 10.7248 27.4637 10.9012 27.1499 11.215L19.9999 18.3817L12.8499 11.215C12.5361 10.9012 12.1104 10.7248 11.6666 10.7248C11.2227 10.7248 10.7971 10.9012 10.4832 11.215C10.1694 11.5288 9.99308 11.9545 9.99308 12.3983C9.99308 12.8422 10.1694 13.2678 10.4832 13.5817L17.6499 20.7317L10.4832 27.8817C10.327 28.0366 10.203 28.2209 10.1184 28.424C10.0338 28.6271 9.99023 28.845 9.99023 29.065C9.99023 29.285 10.0338 29.5029 10.1184 29.706C10.203 29.9091 10.327 30.0934 10.4832 30.2483C10.6382 30.4045 10.8225 30.5285 11.0256 30.6131C11.2287 30.6978 11.4465 30.7413 11.6666 30.7413C11.8866 30.7413 12.1044 30.6978 12.3075 30.6131C12.5106 30.5285 12.695 30.4045 12.8499 30.2483L19.9999 23.0817L27.1499 30.2483C27.3048 30.4045 27.4892 30.5285 27.6923 30.6131C27.8954 30.6978 28.1132 30.7413 28.3332 30.7413C28.5533 30.7413 28.7711 30.6978 28.9742 30.6131C29.1773 30.5285 29.3616 30.4045 29.5166 30.2483C29.6728 30.0934 29.7968 29.9091 29.8814 29.706C29.966 29.5029 30.0096 29.285 30.0096 29.065C30.0096 28.845 29.966 28.6271 29.8814 28.424C29.7968 28.2209 29.6728 28.0366 29.5166 27.8817L22.3499 20.7317Z" fill="#343434"/>
</svg>
